<?xml version="1.0" encoding="UTF-8" standalone="no"?>
<!-- Created with Inkscape (http://www.inkscape.org/) -->

<svg
   xmlns:dc="http://purl.org/dc/elements/1.1/"
   xmlns:cc="http://creativecommons.org/ns#"
   xmlns:rdf="http://www.w3.org/1999/02/22-rdf-syntax-ns#"
   xmlns:svg="http://www.w3.org/2000/svg"
   xmlns="http://www.w3.org/2000/svg"
   xmlns:sodipodi="http://sodipodi.sourceforge.net/DTD/sodipodi-0.dtd"
   xmlns:inkscape="http://www.inkscape.org/namespaces/inkscape"
   id="svg9064"
   height="50"
   width="50"
   version="1.1"
   viewBox="0 0 50.000003 50.000001"
   inkscape:version="0.91 r13725"
   sodipodi:docname="conselhos.svg">
  <defs
     id="defs29" />
  <sodipodi:namedview
     pagecolor="#ffffff"
     bordercolor="#666666"
     borderopacity="1"
     objecttolerance="10"
     gridtolerance="10"
     guidetolerance="10"
     inkscape:pageopacity="0"
     inkscape:pageshadow="2"
     inkscape:window-width="1366"
     inkscape:window-height="715"
     id="namedview27"
     showgrid="false"
     inkscape:zoom="4.72"
     inkscape:cx="25"
     inkscape:cy="25"
     inkscape:window-x="0"
     inkscape:window-y="0"
     inkscape:window-maximized="1"
     inkscape:current-layer="svg9064" />
  <metadata
     id="metadata9069">
    <rdf:RDF>
      <cc:Work
         rdf:about="">
        <dc:format>image/svg+xml</dc:format>
        <dc:type
           rdf:resource="http://purl.org/dc/dcmitype/StillImage" />
        <dc:title />
      </cc:Work>
    </rdf:RDF>
  </metadata>
  <g
     id="layer1"
     transform="translate(-125.94 -748.51)"
     style="fill:#28bbb6;fill-opacity:1">
    <g
       id="g8192"
       transform="matrix(.097656 0 0 .097656 125.94 748.51)"
       fill="#28b2ad"
       style="fill:#28bbb6;fill-opacity:1">
      <g
         id="g8194"
         style="fill:#28bbb6;fill-opacity:1">
        <g
           id="g8196"
           fill="#28b2ad"
           style="fill:#28bbb6;fill-opacity:1">
          <path
             id="path8198"
             fill="#28b2ad"
             d="m466.73 349.52c4.329 0 7.837-3.508 7.837-7.837v-323.4c0-10.077-8.21-18.28-18.29-18.28h-344.77c-10.08 0-18.287 8.203-18.287 18.286v38.627h-37.504c-10.082 0-18.286 8.203-18.286 18.286v310.99c0 7.806 4.159 17.858 9.676 23.381l38.958 39.011c1.531 1.533 3.538 2.299 5.545 2.299 2.004 0 4.008-0.764 5.538-2.291 3.063-3.058 3.066-8.021 0.007-11.083l-32.985-33.03h78.03c1.416 0 2.612 1.196 2.612 2.612v78.141l-19.487-19.513c-3.059-3.064-8.02-3.067-11.082-0.007-3.063 3.058-3.067 8.02-0.008 11.082l25.484 25.52c5.518 5.526 15.568 9.694 23.379 9.694h237.39c10.082 0 18.286-8.203 18.286-18.286v-38.627h37.505c10.082 0 18.286-8.203 18.286-18.286v-53.323c0-4.329-3.508-7.837-7.837-7.837s-7.837 3.508-7.837 7.837v53.324c0 1.416-1.196 2.612-2.612 2.612h-37.505v-301.49c0-4.329-3.508-7.837-7.837-7.837s-7.837 3.508-7.837 7.837v355.79c0 1.416-1.196 2.612-2.612 2.612h-237.39c-0.776 0-1.67-0.12-2.612-0.328v-88.916c0-10.082-8.203-18.286-18.286-18.286h-88.767c-0.206-0.943-0.327-1.836-0.327-2.612v-310.99c0-1.416 1.196-2.612 2.612-2.612h344.77c1.416 0 2.612 1.196 2.612 2.612v25.112c0 4.329 3.508 7.837 7.837 7.837s7.837-3.508 7.837-7.837v-25.112c0-10.082-8.203-18.286-18.286-18.286h-291.59v-38.626c0-1.416 1.196-2.612 2.612-2.612h344.77c1.416 0 2.612 1.196 2.612 2.612v323.4c0.001 4.329 3.508 7.836 7.837 7.836z"
             style="fill:#28bbb6;fill-opacity:1" />
        </g>
      </g>
      <g
         id="g8200"
         style="fill:#28bbb6;fill-opacity:1">
        <g
           id="g8202"
           fill="#28b2ad"
           style="fill:#28bbb6;fill-opacity:1">
          <path
             id="path8204"
             fill="#28b2ad"
             d="m324.74 142.63h-182.41c-4.329 0-7.837 3.508-7.837 7.837s3.508 7.837 7.837 7.837h182.41c4.329 0 7.837-3.508 7.837-7.837 0-4.33-3.508-7.837-7.837-7.837z"
             style="fill:#28bbb6;fill-opacity:1" />
        </g>
      </g>
      <g
         id="g8206"
         style="fill:#28bbb6;fill-opacity:1">
        <g
           id="g8208"
           fill="#28b2ad"
           style="fill:#28bbb6;fill-opacity:1">
          <path
             id="path8210"
             fill="#28b2ad"
             d="m324.74 192.78h-182.41c-4.329 0-7.837 3.508-7.837 7.837s3.508 7.837 7.837 7.837h182.41c4.329 0 7.837-3.508 7.837-7.837s-3.508-7.837-7.837-7.837z"
             style="fill:#28bbb6;fill-opacity:1" />
        </g>
      </g>
      <g
         id="g8212"
         style="fill:#28bbb6;fill-opacity:1">
        <g
           id="g8214"
           fill="#28b2ad"
           style="fill:#28bbb6;fill-opacity:1">
          <path
             id="path8216"
             fill="#28b2ad"
             d="m324.74 242.94h-182.41c-4.329 0-7.837 3.508-7.837 7.837s3.508 7.837 7.837 7.837h182.41c4.329 0 7.837-3.508 7.837-7.837s-3.508-7.837-7.837-7.837z"
             style="fill:#28bbb6;fill-opacity:1" />
        </g>
      </g>
      <g
         id="g8218"
         style="fill:#28bbb6;fill-opacity:1">
        <g
           id="g8220"
           fill="#28b2ad"
           style="fill:#28bbb6;fill-opacity:1">
          <path
             id="path8222"
             fill="#28b2ad"
             d="m324.74 293.09h-182.41c-4.329 0-7.837 3.508-7.837 7.837s3.508 7.837 7.837 7.837h182.41c4.329 0 7.837-3.508 7.837-7.837s-3.508-7.837-7.837-7.837z"
             style="fill:#28bbb6;fill-opacity:1" />
        </g>
      </g>
      <g
         id="g8224"
         style="fill:#28bbb6;fill-opacity:1">
        <g
           id="g8226"
           fill="#28b2ad"
           style="fill:#28bbb6;fill-opacity:1">
          <path
             id="path8228"
             fill="#28b2ad"
             d="m324.74 343.25h-182.41c-4.329 0-7.837 3.508-7.837 7.837s3.508 7.837 7.837 7.837h182.41c4.329 0 7.837-3.508 7.837-7.837s-3.508-7.837-7.837-7.837z"
             style="fill:#28bbb6;fill-opacity:1" />
        </g>
      </g>
      <g
         id="g8230"
         style="fill:#28bbb6;fill-opacity:1">
        <g
           id="g8232"
           fill="#28b2ad"
           style="fill:#28bbb6;fill-opacity:1">
          <path
             id="path8234"
             fill="#28b2ad"
             d="m324.74 393.4h-112.05c-4.329 0-7.837 3.508-7.837 7.837s3.508 7.837 7.837 7.837h112.05c4.329 0 7.837-3.508 7.837-7.837s-3.508-7.837-7.837-7.837z"
             style="fill:#28bbb6;fill-opacity:1" />
        </g>
      </g>
    </g>
  </g>
</svg>
