<?xml version="1.0" encoding="UTF-8" standalone="no"?>
<!-- Created with Inkscape (http://www.inkscape.org/) -->

<svg
   xmlns:dc="http://purl.org/dc/elements/1.1/"
   xmlns:cc="http://creativecommons.org/ns#"
   xmlns:rdf="http://www.w3.org/1999/02/22-rdf-syntax-ns#"
   xmlns:svg="http://www.w3.org/2000/svg"
   xmlns="http://www.w3.org/2000/svg"
   xmlns:sodipodi="http://sodipodi.sourceforge.net/DTD/sodipodi-0.dtd"
   xmlns:inkscape="http://www.inkscape.org/namespaces/inkscape"
   id="svg9064"
   height="50"
   width="50"
   version="1.1"
   viewBox="0 0 50.000003 50.000001"
   inkscape:version="0.91 r13725"
   sodipodi:docname="eventos.svg">
  <defs
     id="defs11" />
  <sodipodi:namedview
     pagecolor="#ffffff"
     bordercolor="#666666"
     borderopacity="1"
     objecttolerance="10"
     gridtolerance="10"
     guidetolerance="10"
     inkscape:pageopacity="0"
     inkscape:pageshadow="2"
     inkscape:window-width="1366"
     inkscape:window-height="715"
     id="namedview9"
     showgrid="false"
     inkscape:zoom="4.72"
     inkscape:cx="25"
     inkscape:cy="25"
     inkscape:window-x="0"
     inkscape:window-y="0"
     inkscape:window-maximized="1"
     inkscape:current-layer="svg9064" />
  <metadata
     id="metadata9069">
    <rdf:RDF>
      <cc:Work
         rdf:about="">
        <dc:format>image/svg+xml</dc:format>
        <dc:type
           rdf:resource="http://purl.org/dc/dcmitype/StillImage" />
        <dc:title />
      </cc:Work>
    </rdf:RDF>
  </metadata>
  <g
     id="layer1"
     transform="translate(-125.94 -748.51)"
     style="fill:#ffcc29;fill-opacity:1">
    <g
       id="g8330"
       transform="matrix(.84746 0 0 .84746 125.94 748.51)"
       fill="#ffa516"
       style="fill:#ffcc29;fill-opacity:1">
      <g
         id="g8332"
         fill="#ffa516"
         style="fill:#ffcc29;fill-opacity:1">
        <path
           id="path8334"
           d="m51.179 40.429-5.596 8.04-3.949-3.241c-0.426-0.352-1.057-0.288-1.407 0.138-0.351 0.427-0.289 1.058 0.139 1.407l4.786 3.929c0.18 0.148 0.404 0.228 0.634 0.228 0.045 0 0.091-0.003 0.137-0.01 0.276-0.038 0.524-0.19 0.684-0.419l6.214-8.929c0.315-0.453 0.204-1.076-0.25-1.392-0.455-0.319-1.077-0.205-1.392 0.249z"
           style="fill:#ffcc29;fill-opacity:1" />
        <path
           id="path8336"
           d="m52 34.479v-19.479-10c0-0.553-0.448-1-1-1h-5v-3c0-0.553-0.448-1-1-1h-7c-0.552 0-1 0.447-1 1v3h-22v-3c0-0.553-0.448-1-1-1h-7c-0.552 0-1 0.447-1 1v3h-5c-0.552 0-1 0.447-1 1v10 41c0 0.553 0.448 1 1 1h38.104c2.002 1.26 4.362 2 6.896 2 7.168 0 13-5.832 13-13 0-5.003-2.846-9.349-7-11.521zm-13-32.479h5v3 3h-5v-3-3zm-31 0h5v3 3h-5v-3-3zm-6 4h4v3c0 0.553 0.448 1 1 1h7c0.552 0 1-0.447 1-1v-3h22v3c0 0.553 0.448 1 1 1h7c0.552 0 1-0.447 1-1v-3h4v8h-48v-8zm0 49v-39h48v17.636c-0.196-0.063-0.396-0.114-0.596-0.169-0.185-0.051-0.37-0.101-0.557-0.144-0.169-0.038-0.34-0.071-0.511-0.102-0.244-0.045-0.489-0.082-0.735-0.113-0.137-0.017-0.273-0.036-0.411-0.049-0.394-0.035-0.791-0.059-1.19-0.059-0.338 0-0.669 0.025-1 0.051v-1.051-2-9h-9-2-7-2-7-2-9v9 2 7 2 9h9 2 7 2 6.636c0.029 0.088 0.065 0.173 0.095 0.26 0.084 0.243 0.167 0.487 0.266 0.724 0.055 0.133 0.12 0.26 0.18 0.39 0.115 0.254 0.232 0.507 0.363 0.753 0.058 0.107 0.123 0.21 0.184 0.316 0.148 0.259 0.298 0.515 0.464 0.763 0.061 0.091 0.128 0.177 0.191 0.267 0.176 0.25 0.356 0.498 0.551 0.736 0.072 0.088 0.15 0.17 0.224 0.256 0.155 0.18 0.303 0.364 0.468 0.536h-34.622zm38.313-20.672c-0.108 0.052-0.218 0.101-0.324 0.156-0.188 0.098-0.37 0.206-0.552 0.313-0.159 0.093-0.318 0.188-0.473 0.287-0.157 0.102-0.31 0.206-0.462 0.314-0.173 0.122-0.341 0.25-0.508 0.38-0.134 0.105-0.268 0.209-0.397 0.32-0.175 0.148-0.342 0.305-0.509 0.462-0.115 0.109-0.234 0.214-0.345 0.326-0.181 0.184-0.352 0.379-0.522 0.574-0.072 0.083-0.151 0.159-0.222 0.244v-5.704h7v1.362c-0.017 0.004-0.033 0.01-0.049 0.014-0.921 0.223-1.803 0.544-2.637 0.952zm-6.743 7.871c-0.035 0.115-0.058 0.233-0.09 0.349-0.08 0.29-0.162 0.58-0.222 0.879-0.047 0.231-0.073 0.467-0.107 0.701-0.027 0.189-0.065 0.375-0.085 0.567-0.043 0.431-0.066 0.867-0.066 1.305 0 0.361 0.02 0.726 0.053 1.092 0.006 0.067 0.006 0.135 0.013 0.202 0.016 0.162 0.048 0.319 0.07 0.479v0.001c0.011 0.076 0.015 0.151 0.027 0.226h-6.163v-7h7v0.007c-0.01 0.024-0.016 0.049-0.026 0.073-0.15 0.365-0.287 0.738-0.404 1.119zm-24.57-1.199h7v7h-7v-7zm0-9h7v7h-7v-7zm34-2h-7v-7h7v7zm-9 0h-7v-7h7v7zm0 9h-7v-7h7v7zm-16-7h7v7h-7v-7zm7-2h-7v-7h7v7zm-9 0h-7v-7h7v7zm2 11h7v7h-7v-7zm28 16c-2.258 0-4.359-0.686-6.107-1.858-0.341-0.228-0.663-0.476-0.972-0.736-0.108-0.092-0.21-0.19-0.314-0.286-0.197-0.179-0.388-0.363-0.57-0.554-0.117-0.123-0.23-0.248-0.341-0.375-0.164-0.189-0.318-0.384-0.468-0.583-0.096-0.127-0.195-0.25-0.286-0.381-0.221-0.321-0.429-0.651-0.615-0.993-0.043-0.08-0.077-0.164-0.118-0.245-0.146-0.286-0.282-0.576-0.403-0.874-0.052-0.13-0.097-0.263-0.145-0.395-0.094-0.262-0.18-0.528-0.255-0.797-0.017-0.062-0.032-0.124-0.048-0.186-0.113-0.44-0.196-0.877-0.255-1.312-0.004-0.031-0.01-0.062-0.014-0.094-0.058-0.449-0.089-0.894-0.089-1.331 0-0.379 0.019-0.755 0.058-1.128 0.003-0.031 0.011-0.061 0.014-0.092 0.038-0.341 0.088-0.681 0.158-1.016 0.007-0.032 0.018-0.063 0.025-0.095 0.072-0.332 0.157-0.662 0.26-0.988 0.012-0.038 0.029-0.075 0.041-0.113 0.103-0.312 0.217-0.622 0.349-0.926 0.124-0.286 0.258-0.567 0.405-0.84l0.099-0.171c0.04-0.072 0.087-0.14 0.129-0.211 0.174-0.293 0.36-0.577 0.557-0.851 0.049-0.068 0.1-0.135 0.151-0.202 0.18-0.238 0.37-0.467 0.568-0.688 0.069-0.077 0.138-0.155 0.209-0.23 0.196-0.208 0.402-0.405 0.613-0.596 0.075-0.068 0.148-0.138 0.225-0.204 0.248-0.212 0.505-0.411 0.77-0.6 0.042-0.03 0.082-0.063 0.124-0.093 1.305-0.902 2.804-1.52 4.412-1.79l0.021-0.003c0.59-0.099 1.193-0.163 1.812-0.163 0.389 0 0.776 0.021 1.16 0.063 0.06 0.006 0.118 0.02 0.178 0.027 0.328 0.041 0.655 0.09 0.978 0.16 0.04 0.009 0.078 0.021 0.117 0.03 0.344 0.079 0.685 0.171 1.022 0.284 0.023 0.008 0.045 0.017 0.068 0.025 0.345 0.118 0.685 0.253 1.022 0.406 3.802 1.734 6.455 5.562 6.455 10.005 0 6.065-4.935 11-11 11z"
           style="fill:#ffcc29;fill-opacity:1" />
      </g>
    </g>
  </g>
</svg>
