<?xml version="1.0" encoding="UTF-8" standalone="no"?>
<!-- Created with Inkscape (http://www.inkscape.org/) -->
<svg id="svg6584" xmlns:rdf="http://www.w3.org/1999/02/22-rdf-syntax-ns#" xmlns="http://www.w3.org/2000/svg" height="8.4667mm" width="8.4667mm" version="1.1" xmlns:cc="http://creativecommons.org/ns#" xmlns:dc="http://purl.org/dc/elements/1.1/" viewBox="0 0 29.999998 29.999998">
 <defs id="defs6586">
  <clipPath id="clipPath13975" clipPathUnits="userSpaceOnUse">
   <path id="path13973" clip-rule="evenodd" d="m1156 539c8.284 0 15 6.7157 15 15s-6.716 15-15 15-15-6.7157-15-15 6.716-15 15-15z"/>
  </clipPath>
  <clipPath id="clipPath13981" clipPathUnits="userSpaceOnUse">
   <path id="path13979" d="m247 524h944v60h-944z"/>
  </clipPath>
  <clipPath id="clipPath13991" clipPathUnits="userSpaceOnUse">
   <path id="path13989" clip-rule="evenodd" d="m1163.5 552.25v3.4694h-5.83v5.7823h-3.34v-5.7823h-5.83v-3.4694h5.83v-5.7483h3.34v5.7483z"/>
  </clipPath>
  <clipPath id="clipPath13997" clipPathUnits="userSpaceOnUse">
   <path id="path13995" d="m247 524h944v60h-944z"/>
  </clipPath>
 </defs>
 <metadata id="metadata6589">
  <rdf:RDF>
   <cc:Work rdf:about="">
    <dc:format>image/svg+xml</dc:format>
    <dc:type rdf:resource="http://purl.org/dc/dcmitype/StillImage"/>
    <dc:title/>
   </cc:Work>
  </rdf:RDF>
 </metadata>
 <g id="layer1" transform="translate(80.714 -503.08)">
  <g id="g13969" transform="matrix(1 0 0 -1 -1221.7 1072.1)">
   <g id="g13971" clip-path="url(#clipPath13975)">
    <g id="g13977" clip-path="url(#clipPath13981)">
     <path id="path13983" d="m1136 534h40v40h-40z" fill="#6898d0"/>
    </g>
   </g>
  </g>
  <g id="g13985" transform="matrix(1 0 0 -1 -1221.7 1072.1)">
   <g id="g13987" clip-path="url(#clipPath13991)">
    <g id="g13993" clip-path="url(#clipPath13997)">
     <path id="path13999" d="m1143.5 541.5h25v25h-25z" fill="#fff"/>
    </g>
   </g>
  </g>
 </g>
</svg>
