<?xml version="1.0" encoding="UTF-8" standalone="no"?>
<!-- Created with Inkscape (http://www.inkscape.org/) -->
<svg id="svg5957" xmlns:rdf="http://www.w3.org/1999/02/22-rdf-syntax-ns#" xmlns="http://www.w3.org/2000/svg" height="8.4667mm" width="8.4667mm" version="1.1" xmlns:cc="http://creativecommons.org/ns#" xmlns:dc="http://purl.org/dc/elements/1.1/" viewBox="0 0 29.999998 29.999998">
 <defs id="defs5959">
  <clipPath id="clipPath14421" clipPathUnits="userSpaceOnUse">
   <path id="path14419" clip-rule="evenodd" d="m1157 827c8.284 0 15 6.7157 15 15s-6.716 15-15 15-15-6.7157-15-15 6.716-15 15-15z"/>
  </clipPath>
  <clipPath id="clipPath14427" clipPathUnits="userSpaceOnUse">
   <path id="path14425" d="m0 0h1440v1898h-1440z"/>
  </clipPath>
  <clipPath id="clipPath14437" clipPathUnits="userSpaceOnUse">
   <path id="path14435" clip-rule="evenodd" d="m1165 839.75v3.4694h-5.83-3.34-5.83v-3.4694h5.83 3.34z"/>
  </clipPath>
  <clipPath id="clipPath14443" clipPathUnits="userSpaceOnUse">
   <path id="path14441" d="m0 0h1440v1898h-1440z"/>
  </clipPath>
 </defs>
 <metadata id="metadata5962">
  <rdf:RDF>
   <cc:Work rdf:about="">
    <dc:format>image/svg+xml</dc:format>
    <dc:type rdf:resource="http://purl.org/dc/dcmitype/StillImage"/>
    <dc:title/>
   </cc:Work>
  </rdf:RDF>
 </metadata>
 <g id="layer1" transform="translate(-179.29 -471.65)">
  <g id="g14415" transform="matrix(1 0 0 -1 -962.71 1328.6)">
   <g id="g14417" clip-path="url(#clipPath14421)">
    <g id="g14423" clip-path="url(#clipPath14427)">
     <path id="path14429" d="m1137 822h40v40h-40z" fill="#6898d0"/>
    </g>
   </g>
  </g>
  <g id="g14431" transform="matrix(1 0 0 -1 -962.71 1328.6)">
   <g id="g14433" clip-path="url(#clipPath14437)">
    <g id="g14439" clip-path="url(#clipPath14443)">
     <path id="path14445" d="m1145 834.75h25v13.469h-25z" fill="#fff"/>
    </g>
   </g>
  </g>
 </g>
</svg>
